<?xml version="1.0" encoding="UTF-8" standalone="no"?>
<!-- Created with Inkscape (http://www.inkscape.org/) -->

<svg
   xmlns:dc="http://purl.org/dc/elements/1.1/"
   xmlns:cc="http://creativecommons.org/ns#"
   xmlns:rdf="http://www.w3.org/1999/02/22-rdf-syntax-ns#"
   xmlns:svg="http://www.w3.org/2000/svg"
   xmlns="http://www.w3.org/2000/svg"
   xmlns:sodipodi="http://sodipodi.sourceforge.net/DTD/sodipodi-0.dtd"
   xmlns:inkscape="http://www.inkscape.org/namespaces/inkscape"
   width="327.72592"
   height="54.139584"
   viewBox="0 0 327.72592 54.139584"
   id="svg2"
   version="1.1"
   inkscape:version="0.91 r13725"
   sodipodi:docname="logo-horizontal.svg">
  <defs
     id="defs4">
    <clipPath
       id="clipPath3358"
       clipPathUnits="userSpaceOnUse">
      <path
         inkscape:connector-curvature="0"
         id="path3360"
         d="m 0,595.275 841.891,0 L 841.891,0 0,0 0,595.275 Z" />
    </clipPath>
    <clipPath
       clipPathUnits="userSpaceOnUse"
       id="clipPath4220">
      <path
         d="m 0,595.28 841.89,0 L 841.89,0 0,0 0,595.28 Z"
         id="path4222"
         inkscape:connector-curvature="0" />
    </clipPath>
  </defs>
  <sodipodi:namedview
     id="base"
     pagecolor="#ffffff"
     bordercolor="#666666"
     borderopacity="1.0"
     inkscape:pageopacity="0.0"
     inkscape:pageshadow="2"
     inkscape:zoom="3.959798"
     inkscape:cx="182.25381"
     inkscape:cy="-2.014844"
     inkscape:document-units="px"
     inkscape:current-layer="layer1"
     showgrid="false"
     fit-margin-top="1"
     fit-margin-left="1"
     fit-margin-right="1"
     fit-margin-bottom="1"
     inkscape:window-width="1920"
     inkscape:window-height="1017"
     inkscape:window-x="-8"
     inkscape:window-y="-8"
     inkscape:window-maximized="1"
     units="px"
     showguides="true"
     inkscape:guide-bbox="true">
    <sodipodi:guide
       position="59.346462,8.0812201"
       orientation="0,1"
       id="guide4280" />
  </sodipodi:namedview>
  <metadata
     id="metadata7">
    <rdf:RDF>
      <cc:Work
         rdf:about="">
        <dc:format>image/svg+xml</dc:format>
        <dc:type
           rdf:resource="http://purl.org/dc/dcmitype/StillImage" />
        <dc:title></dc:title>
      </cc:Work>
    </rdf:RDF>
  </metadata>
  <g
     inkscape:label="Layer 1"
     inkscape:groupmode="layer"
     id="layer1"
     transform="translate(-179.57265,-437.80608)">
    <path
       inkscape:connector-curvature="0"
       id="path4210"
       style="fill:#101010;fill-opacity:1;fill-rule:nonzero;stroke:none"
       d="m 199.55649,477.41232 0,6.66665 -18.98384,0 0,-45.27288 18.98384,0 0,6.20189 -12.65459,0 0,13.20198 11.12351,0 0,6.00128 -11.12351,0 0,13.20108 12.65459,0 z" />
    <path
       inkscape:connector-curvature="0"
       id="path4214"
       style="fill:#101010;fill-opacity:1;fill-rule:nonzero;stroke:none"
       d="m 211.28178,438.80612 6.19414,0 9.85814,45.27288 -6.86248,0 -4.46054,-24.20212 -1.46638,-7.06726 -4.19694,22.46866 -1.59818,8.80072 -6.72857,0 9.26081,-45.27288 z" />
    <path
       inkscape:connector-curvature="0"
       id="path4226"
       style="fill:#101010;fill-opacity:1;fill-rule:nonzero;stroke:none"
       d="m 250.77987,472.47941 c 0,1.42171 -0.0767,2.63196 -0.23321,3.63197 -0.15377,1.00122 -0.59913,2.10094 -1.33127,3.30155 -0.73124,1.20032 -1.88737,2.27774 -3.4645,3.23288 -1.57682,0.95754 -3.18614,1.43315 -4.82916,1.43315 -1.95628,0 -3.74194,-0.41928 -5.3636,-1.26658 -1.61985,-0.84369 -2.80698,-1.91027 -3.56229,-3.20065 -0.75561,-1.28887 -1.23317,-2.47744 -1.43298,-3.56721 -0.20101,-1.08737 -0.29761,-2.27714 -0.29761,-3.56511 l 0,-22.93885 c 0,-1.24279 0.11977,-2.35485 0.36532,-3.33318 0.24284,-0.97592 0.76494,-2.0434 1.56478,-3.19914 0.79985,-1.15573 1.92107,-2.14551 3.36278,-2.96781 1.44352,-0.82169 2.96376,-1.23435 4.56376,-1.23435 3.06607,0 5.60613,1.01357 7.62832,3.03468 2.02068,2.02352 3.02966,4.59042 3.02966,7.6998 l 0,2.40214 -6.32624,0 0,-2.42594 c 0,-1.25574 -0.34094,-2.30033 -1.01651,-3.13016 -0.67556,-0.83013 -1.67071,-1.2449 -2.98061,-1.2449 -1.22204,0 -2.17264,0.41176 -2.84821,1.23496 -0.67707,0.82531 -1.01651,1.86177 -1.01651,3.10847 l 0,22.98253 c 0,0.57953 0.0108,1.15845 0.0337,1.73617 0.0214,0.57953 0.31626,1.31417 0.88259,2.20575 0.56844,0.89128 1.57261,1.33466 3.01462,1.33466 1.52928,0 2.52261,-0.38796 2.98031,-1.16568 0.4577,-0.77712 0.73244,-1.35484 0.8182,-1.73376 0.0876,-0.37651 0.13241,-0.89911 0.13241,-1.56538 l 0,-0.80001 0,-1.46719 6.32624,0 0,1.46719 z" />
    <path
       inkscape:connector-curvature="0"
       id="path4230"
       style="fill:#101010;fill-opacity:1;fill-rule:nonzero;stroke:none"
       d="m 261.37027,484.07905 0,-39.00503 -7.4577,0 0,-6.26785 21.38067,0 0,6.26785 -7.59342,0 0,39.00503 -6.32955,0 z" />
    <path
       d="m 279.75522,438.80617 6.32925,0 0,45.27288 -6.32925,0 0,-45.27288 z"
       style="fill:#101010;fill-opacity:1;fill-rule:nonzero;stroke:none"
       id="path4232"
       inkscape:connector-curvature="0" />
    <path
       inkscape:connector-curvature="0"
       id="path4236"
       style="fill:#101010;fill-opacity:1;fill-rule:nonzero;stroke:none"
       d="m 299.00582,484.07905 -9.0592,-45.27288 6.65936,0 5.12858,31.27179 5.264,-31.27179 6.72706,0 -9.25931,45.27288 -5.46049,0 z" />
    <path
       inkscape:connector-curvature="0"
       id="path4240"
       style="fill:#101010;fill-opacity:1;fill-rule:nonzero;stroke:none"
       d="m 336.57265,477.41231 0,6.66665 -18.98384,0 0,-45.27288 18.98384,0 0,6.20189 -12.65579,0 0,13.20198 11.1232,0 0,6.00128 -11.1232,0 0,13.20108 12.65579,0 z" />
    <g
       id="g4269"
       transform="translate(169.72593,-35.860415)">
      <path
         d="m 192.99206,506.69853 -4.10455,0 -1.24521,4.53711 4.10275,0 1.24701,-4.53711 z m 7.06801,-2.64552 -0.53774,2.666 -3.84456,0 -1.18261,4.51663 3.86832,0 -0.55911,2.64491 -3.97395,0 -1.35444,5.72086 -2.77177,0 1.3758,-5.72086 -4.03955,0 -1.3761,5.72086 -2.74831,0 1.35264,-5.72086 -3.6959,0 0.53744,-2.64491 3.825,0 1.20217,-4.51663 -3.88788,0 0.53744,-2.666 4.01698,0 1.35444,-5.72055 2.77117,0 -1.3758,5.72055 4.04015,0 1.374,-5.72055 2.75041,0 -1.35264,5.72055 3.6944,0 z"
         style="fill:#4f4f4f;fill-opacity:1;fill-rule:nonzero;stroke:none"
         id="path4244"
         inkscape:connector-curvature="0" />
      <path
         d="m 226.09621,501.79446 -5.34795,17.80686 -3.0083,0 -3.86802,-13.07517 -3.825,13.07517 -3.02785,0 -5.35157,-17.80686 3.50271,0 3.26589,13.57036 3.99561,-13.57036 2.87891,0 4.04015,13.57036 3.26588,-13.57036 3.47954,0 z"
         style="fill:#4f4f4f;fill-opacity:1;fill-rule:nonzero;stroke:none"
         id="path4248"
         inkscape:connector-curvature="0" />
      <path
         inkscape:connector-curvature="0"
         id="path4250"
         style="fill:#4f4f4f;fill-opacity:1;fill-rule:nonzero;stroke:none"
         d="m 231.14851,519.6015 -3.18012,0 0,-17.80686 3.18012,0 0,17.80686 z" />
      <path
         d="m 247.23115,508.9776 c -0.25789,-1.72081 -0.83054,-3.00335 -1.71976,-3.84915 -0.88741,-0.84639 -1.98396,-1.26899 -3.28755,-1.26899 -0.62952,0 -1.21632,0.10392 -1.76098,0.31115 -0.54377,0.20813 -1.03517,0.5241 -1.4712,0.947 -0.43754,0.4226 -0.80647,0.95664 -1.10739,1.60153 -0.30092,0.64549 -0.51547,1.39851 -0.64457,2.25846 l 9.99145,0 z m -4.66306,11.05406 c -1.30388,0 -2.488,-0.21205 -3.55507,-0.63465 -1.06676,-0.42289 -1.98095,-1.03194 -2.73927,-1.82743 -0.75982,-0.7964 -1.34662,-1.77081 -1.76279,-2.92504 -0.41437,-1.15423 -0.622,-2.46298 -0.622,-3.92475 0,-1.46207 0.20462,-2.77112 0.61117,-3.92475 0.40865,-1.15423 0.97799,-2.12924 1.70922,-2.92504 0.72943,-0.79609 1.60752,-1.40453 2.63185,-1.82773 1.02403,-0.4232 2.15128,-0.63435 3.38264,-0.63435 1.26086,0 2.40315,0.20784 3.42748,0.6232 1.02403,0.41567 1.90242,1.0214 2.63185,1.8178 0.73093,0.79519 1.29275,1.7705 1.68756,2.92504 0.393,1.15423 0.591,2.469 0.591,3.94583 l 0,0.75212 -13.38492,0 c 0.0704,1.047 0.25608,1.95093 0.557,2.70997 0.30092,0.75995 0.69122,1.38707 1.17179,1.88196 0.47936,0.49428 1.03035,0.86416 1.65385,1.10754 0.62321,0.24368 1.29275,0.36597 2.00864,0.36597 0.54467,0 1.07459,-0.0717 1.59067,-0.21536 0.51577,-0.14338 0.97648,-0.35121 1.38513,-0.62411 0.40835,-0.27169 0.74147,-0.61236 0.99966,-1.0214 0.25759,-0.40874 0.40052,-0.87049 0.42971,-1.38706 l 3.26619,0 c -0.1291,0.91778 -0.41317,1.73526 -0.8492,2.45153 -0.43754,0.71688 -0.99514,1.3193 -1.67552,1.80665 -0.67978,0.48766 -1.45856,0.85694 -2.33243,1.10755 -0.87357,0.2506 -1.81154,0.37651 -2.81421,0.37651"
         style="fill:#4f4f4f;fill-opacity:1;fill-rule:nonzero;stroke:none"
         id="path4254"
         inkscape:connector-curvature="0" />
      <path
         d="m 277.33049,519.60138 -3.15846,0 0,-11.50497 c 0,-1.47743 -0.21184,-2.52804 -0.63434,-3.15094 -0.42219,-0.62411 -1.13446,-0.93556 -2.13713,-0.93556 -1.53259,0 -3.03749,0.9461 -4.5132,2.83799 l 0,12.75348 -3.15665,0 0,-11.50497 c 0,-1.47743 -0.21215,-2.52804 -0.63434,-3.15094 -0.42399,-0.62411 -1.13627,-0.93556 -2.13743,-0.93556 -1.53409,0 -3.02997,0.9461 -4.49154,2.83799 l 0,12.75348 -3.17982,0 0,-17.80686 3.17982,0 0,2.27925 c 1.47572,-1.77743 3.12927,-2.6657 4.96278,-2.6657 2.60717,0 4.26885,1.06748 4.98564,3.20366 0.60094,-0.68766 1.15192,-1.25424 1.65416,-1.69882 0.50073,-0.44428 0.95963,-0.75965 1.374,-0.9461 0.83114,-0.37289 1.64152,-0.55874 2.42933,-0.55874 3.63782,0 5.45718,2.18617 5.45718,6.55882 l 0,11.63449 z"
         style="fill:#4f4f4f;fill-opacity:1;fill-rule:nonzero;stroke:none"
         id="path4258"
         inkscape:connector-curvature="0" />
      <path
         d="m 281.46871,523.90273 c 1.57532,0 2.85784,-1.43436 3.84636,-4.30126 l -6.72526,-17.80686 3.41634,0 4.70489,13.93603 4.72805,-13.93603 3.41635,0 -6.72556,17.80686 c -0.33011,0.85965 -0.63434,1.61629 -0.9136,2.2687 -0.27955,0.65242 -0.52661,1.20785 -0.73996,1.66659 -0.2305,0.45904 -0.4914,0.88556 -0.7848,1.27954 -0.2946,0.39428 -0.62351,0.73856 -0.98882,1.03314 -0.36562,0.29338 -0.77246,0.52621 -1.22384,0.6982 -0.45138,0.1726 -0.94279,0.25844 -1.47271,0.25844 -0.38668,0 -0.7523,-0.0184 -1.09625,-0.0536 -0.34245,-0.0365 -0.65871,-0.097 -0.94429,-0.18284 l 0,-2.90365 c 0.51608,0.15723 1.01651,0.23675 1.5031,0.23675"
         style="fill:#4f4f4f;fill-opacity:1;fill-rule:nonzero;stroke:none"
         id="path4262"
         inkscape:connector-curvature="0" />
      <path
         d="m 300.00409,520.54736 c 0,2.55244 -0.40083,4.22987 -1.20218,5.0329 -0.83084,0.80212 -1.95477,1.20423 -3.37361,1.20423 -0.43001,0 -0.82001,-0.0108 -1.17028,-0.0319 -0.35147,-0.022 -0.66924,-0.0687 -0.95632,-0.14006 l 0,-2.68829 c 0.63073,0.15723 1.21722,0.23675 1.76098,0.23675 0.34426,0 0.62652,-0.0506 0.8492,-0.1506 0.22117,-0.10061 0.40082,-0.28344 0.53744,-0.54881 0.13512,-0.26536 0.23201,-0.63765 0.29009,-1.11838 0.0572,-0.48013 0.0861,-1.10002 0.0861,-1.85967 l 0,-18.68909 3.17862,0 0,18.75295 z"
         style="fill:#4f4f4f;fill-opacity:1;fill-rule:nonzero;stroke:none"
         id="path4266"
         inkscape:connector-curvature="0" />
      <path
         d="m 315.0507,514.91295 0,-3.93469 -2.17144,0 c -4.58331,0 -6.87452,1.2461 -6.87452,3.74162 0,0.90302 0.33342,1.59851 0.99846,2.08556 0.66623,0.48826 1.572,0.73194 2.71941,0.73194 0.51427,0 1.02704,-0.0608 1.53529,-0.18313 0.50826,-0.12229 0.99966,-0.2976 1.4709,-0.52712 0.47305,-0.22892 0.90607,-0.50573 1.30058,-0.82772 0.3933,-0.3229 0.73424,-0.68465 1.02132,-1.08646 m 0,2.86028 c -1.634,1.50544 -3.71125,2.25846 -6.23115,2.25846 -0.87357,0 -1.68305,-0.1259 -2.42752,-0.37651 -0.74478,-0.25061 -1.38664,-0.60242 -1.92408,-1.05363 -0.53594,-0.45181 -0.95513,-0.99308 -1.25635,-1.62381 -0.30092,-0.63104 -0.45138,-1.32592 -0.45138,-2.08557 0,-4.15789 3.58125,-6.23713 10.74255,-6.23713 l 1.54793,0 c 0,-0.65935 -0.0123,-1.21116 -0.0322,-1.65635 -0.0217,-0.44428 -0.0767,-0.82381 -0.1625,-1.13977 -0.0849,-0.31477 -0.21816,-0.57983 -0.39661,-0.79519 -0.17965,-0.21537 -0.4267,-0.4226 -0.74146,-0.62411 -0.62953,-0.38675 -1.61083,-0.58013 -2.9436,-0.58013 -2.80699,0 -4.25351,1.01056 -4.33957,3.03167 l -3.15846,0 c 0.2287,-3.65607 2.78532,-5.48321 7.66985,-5.48321 2.27736,0 4.05369,0.45122 5.32839,1.35424 1.2744,0.88887 1.91175,2.6675 1.91175,5.33411 l 0,11.50496 -3.13559,0 0,-1.82803 z"
         style="fill:#4f4f4f;fill-opacity:1;fill-rule:nonzero;stroke:none"
         id="path4270"
         inkscape:connector-curvature="0" />
      <path
         d="m 336.57265,519.60138 -3.7606,0 -5.77947,-9.03205 -1.97644,1.95636 0,7.07569 -3.17862,0 0,-24.58104 3.17862,0 0,13.93572 6.85466,-7.16154 3.97395,0 -6.72406,6.64527 7.41196,11.16159 z"
         style="fill:#4f4f4f;fill-opacity:1;fill-rule:nonzero;stroke:none"
         id="path4274"
         inkscape:connector-curvature="0" />
    </g>
  </g>
</svg>
