<?xml version="1.0" encoding="utf-8"?>
<!-- Generator: Adobe Illustrator 16.0.0, SVG Export Plug-In . SVG Version: 6.00 Build 0)  -->
<!DOCTYPE svg PUBLIC "-//W3C//DTD SVG 1.1//EN" "http://www.w3.org/Graphics/SVG/1.1/DTD/svg11.dtd">
<svg version="1.1" id="Layer_1" xmlns="http://www.w3.org/2000/svg" xmlns:xlink="http://www.w3.org/1999/xlink" x="0px" y="0px"
	 width="496.091px" height="55.693px" viewBox="49.579 393.101 496.091 55.693"
	 enable-background="new 49.579 393.101 496.091 55.693" xml:space="preserve">
<title>Artboard 1</title>
<path fill="#c0aa6e" d="M180.173,423.906v-6.78c0-3.431-0.115-5.942,1.001-7.796c1.117-1.854,3.163-3.704,5.271-4.38
	c2.108-0.675,5.271-0.546,9.047-0.546h16.686c0.72-0.039,1.434,0.148,2.041,0.537c0.468,0.303,0.749,0.823,0.748,1.38v2.003
	c0.002,0.558-0.279,1.078-0.748,1.38c-0.602,0.385-1.309,0.572-2.022,0.537h-13.963c-3.589,0-5.99-0.192-7.227,0.987
	c-1.495,1.438-1.217,2.569-1.217,5.19v0.091c-0.038,0.259,0.066,0.52,0.273,0.681c0.301,0.133,0.63,0.189,0.958,0.163h13.063
	c0.72-0.039,1.434,0.149,2.041,0.537c0.469,0.303,0.75,0.823,0.748,1.38v1.917c0.002,0.557-0.279,1.079-0.748,1.379
	c-0.607,0.389-1.321,0.576-2.041,0.537h-13.067c-0.817,0-1.227,0.281-1.227,0.844v0.609c0,2.682-0.196,4.725,0.824,5.471
	c1.021,0.748,4.03,0.797,7.619,0.797h13.958c0.709-0.031,1.409,0.156,2.008,0.535c0.485,0.293,0.783,0.814,0.786,1.381v2.061
	c-0.017,0.547-0.316,1.045-0.79,1.318c-0.6,0.379-1.3,0.566-2.008,0.535h-16.681c-3.834,0-6.187,0.125-8.88-0.383
	c-2.31-0.432-4.192-1.326-5.304-3.201C180.211,431.195,180.173,427.337,180.173,423.906z"/>
<path fill="#c0aa6e" d="M256.258,436.677h-14.03c-5.588,0-10.25,0.541-12.938-2.152c-2.525-2.525-2.396-5.631-2.396-10.541V406.32
	c0.003-0.565,0.301-1.089,0.785-1.38c0.577-0.374,1.255-0.561,1.941-0.537h4.087c0.708-0.03,1.409,0.157,2.008,0.537
	c0.485,0.291,0.783,0.814,0.786,1.38v18.294c0,2.621,0.206,4.826,1.308,5.43c1.236,0.676,3.479,0.795,7.068,0.795h11.376
	c0.708-0.029,1.408,0.158,2.008,0.537c0.484,0.291,0.782,0.814,0.786,1.381v2.061c-0.019,0.535-0.308,1.023-0.768,1.299
	C257.68,436.507,256.974,436.703,256.258,436.677z"/>
<path fill="#c0aa6e" d="M317.095,436.677c-0.687,0.023-1.364-0.164-1.94-0.537c-0.476-0.277-0.771-0.783-0.781-1.332V406.32
	c0.001-0.565,0.297-1.088,0.781-1.38c0.576-0.374,1.254-0.561,1.94-0.537h16.071c7.262,0,12.392,0.798,15.392,2.396
	c3,1.597,4.498,4.614,4.495,9.052v0.714c0,4.472-1.499,7.497-4.495,9.075s-8.127,2.377-15.392,2.396h-8.107
	c-0.814,0-1.227,0.283-1.227,0.844v5.941c-0.012,0.551-0.31,1.057-0.786,1.332c-0.599,0.381-1.3,0.568-2.008,0.537L317.095,436.677z
	 M325.059,410.24c-0.328-0.026-0.657,0.03-0.958,0.163c-0.206,0.161-0.31,0.418-0.273,0.676v10.293
	c-0.032,0.245,0.072,0.488,0.273,0.632c0.301,0.135,0.63,0.189,0.958,0.164h7.901c4.269,0,7.084-0.375,8.448-1.122
	c1.364-0.748,2.045-2.323,2.041-4.725v-0.235c0-2.402-0.68-3.977-2.041-4.725s-4.177-1.121-8.448-1.121H325.059z"/>
<path fill="#c0aa6e" d="M370.85,436.677h-4.088c-0.687,0.023-1.364-0.164-1.94-0.537c-0.475-0.277-0.771-0.783-0.781-1.332V406.32
	c0.001-0.565,0.297-1.088,0.781-1.38c0.576-0.374,1.254-0.561,1.94-0.537h4.088c0.708-0.03,1.408,0.158,2.008,0.537
	c0.482,0.292,0.778,0.815,0.78,1.38v10.628c-0.027,0.251,0.075,0.5,0.273,0.656c0.296,0.151,0.628,0.216,0.959,0.187h17.102
	c0.818,0,1.227-0.281,1.227-0.843V406.32c0.003-0.565,0.301-1.089,0.786-1.38c0.599-0.379,1.3-0.566,2.008-0.537h4.016
	c0.708-0.03,1.408,0.157,2.008,0.537c0.484,0.291,0.782,0.814,0.786,1.38v28.488c-0.012,0.551-0.31,1.057-0.786,1.332
	c-0.599,0.379-1.3,0.566-2.008,0.537h-4.016c-0.708,0.029-1.409-0.158-2.008-0.537c-0.477-0.275-0.774-0.781-0.786-1.332v-10.342
	c0-0.559-0.408-0.84-1.227-0.842h-17.106c-0.328-0.027-0.657,0.029-0.959,0.162c-0.205,0.16-0.31,0.418-0.272,0.676v10.34
	c-0.012,0.551-0.308,1.055-0.781,1.332C372.256,436.515,371.557,436.705,370.85,436.677z"/>
<path fill="#c0aa6e" d="M414.704,434.291l8.376-24.137c0.738-2.15,1.907-3.685,3.508-4.605s3.88-1.38,6.838-1.38h6.315
	c2.962,0,5.241,0.454,6.838,1.361c1.598,0.907,2.767,2.421,3.508,4.542l8.371,24.126c0.547,1.648-0.314,2.471-2.582,2.469h-3.661
	c-1.246,0-2.12-0.16-2.621-0.48c-0.573-0.41-0.979-1.014-1.146-1.701l-1.72-5.434c-0.186-0.514-0.647-0.771-1.386-0.771h-18.074
	c-0.738,0-1.198,0.25-1.385,0.754l-1.73,5.533c-0.159,0.646-0.539,1.217-1.073,1.615c-0.473,0.32-1.297,0.479-2.473,0.479h-3.459
	C414.883,436.671,414.069,435.88,414.704,434.291z M443.393,422.455c0.829,0,1.15-0.293,0.959-0.872l-2.761-8.721
	c-0.319-1.185-0.774-1.957-1.365-2.314s-1.591-0.537-3-0.537h-1.84c-1.412,0-2.4,0.179-2.966,0.537s-1.055,1.129-1.467,2.314
	l-2.736,8.736c-0.182,0.572,0.118,0.857,0.901,0.857H443.393z"/>
<path fill="#c0aa6e" d="M480.142,436.677c-0.717,0.039-1.429-0.141-2.041-0.514c-0.471-0.289-0.754-0.805-0.748-1.355v-23.672
	c0-0.591-0.409-0.887-1.227-0.887h-11.645c-0.683,0.025-1.358-0.153-1.94-0.513c-0.486-0.278-0.786-0.796-0.786-1.356v-2.061
	c0.017-0.554,0.313-1.063,0.786-1.351c0.571-0.389,1.251-0.585,1.94-0.561h35.278c0.711-0.031,1.415,0.166,2.008,0.561
	c0.474,0.29,0.77,0.8,0.785,1.356v2.056c-0.001,0.56-0.3,1.077-0.785,1.356c-0.604,0.365-1.303,0.543-2.008,0.513h-11.645
	c-0.818,0-1.227,0.295-1.227,0.887v23.666c-0.007,0.543-0.288,1.045-0.748,1.332c-0.584,0.385-1.275,0.572-1.974,0.537
	L480.142,436.677z"/>
<path fill="#c0aa6e" d="M267.743,423.906v-6.78c0-3.431-0.114-5.942,1.002-7.796s3.162-3.704,5.271-4.38c2.108-0.675,5.271-0.546,9.047-0.546
	h16.685c0.72-0.039,1.434,0.148,2.041,0.537c0.468,0.303,0.749,0.823,0.748,1.38v2.003c0.002,0.558-0.279,1.078-0.748,1.38
	c-0.607,0.389-1.321,0.576-2.041,0.537H285.79c-3.59,0-5.99-0.192-7.227,0.987c-1.495,1.438-1.217,2.569-1.217,5.19v0.091
	c-0.038,0.259,0.066,0.52,0.272,0.681c0.302,0.133,0.631,0.189,0.959,0.163h13.067c0.72-0.039,1.434,0.149,2.041,0.537
	c0.469,0.303,0.75,0.823,0.748,1.38v1.917c0.002,0.557-0.279,1.079-0.748,1.379c-0.607,0.389-1.321,0.576-2.041,0.537h-13.072
	c-0.818,0-1.227,0.281-1.227,0.844v0.609c0,2.682-0.196,4.725,0.824,5.471c1.021,0.748,4.029,0.797,7.619,0.797h13.958
	c0.708-0.031,1.409,0.156,2.008,0.535c0.485,0.293,0.783,0.814,0.786,1.381v2.061c-0.012,0.551-0.31,1.057-0.786,1.332
	c-0.599,0.381-1.3,0.566-2.008,0.537h-16.685c-3.834,0-6.187,0.125-8.88-0.383c-2.31-0.432-4.192-1.328-5.305-3.201
	C267.768,431.208,267.743,427.337,267.743,423.906z"/>
<path fill="#c0aa6e" d="M510.876,423.906v-6.78c0-3.431-0.114-5.942,1.002-7.796s3.162-3.704,5.271-4.38c2.108-0.675,5.271-0.546,9.048-0.546
	h16.685c0.72-0.039,1.434,0.148,2.041,0.537c0.468,0.303,0.75,0.823,0.748,1.38v2.003c0.003,0.558-0.279,1.078-0.748,1.38
	c-0.606,0.389-1.321,0.576-2.041,0.537h-13.958c-3.59,0-5.99-0.192-7.227,0.987c-1.495,1.438-1.217,2.569-1.217,5.19v0.091
	c-0.038,0.259,0.066,0.52,0.272,0.681c0.301,0.133,0.631,0.189,0.959,0.163h13.058c0.72-0.039,1.434,0.149,2.041,0.537
	c0.469,0.303,0.75,0.823,0.748,1.38v1.917c0.002,0.557-0.279,1.079-0.748,1.379c-0.607,0.389-1.321,0.576-2.041,0.537h-13.067
	c-0.818,0-1.227,0.281-1.227,0.844v0.609c0,2.682-0.196,4.725,0.824,5.471c1.021,0.748,4.029,0.797,7.619,0.797h13.958
	c0.709-0.031,1.409,0.156,2.008,0.535c0.485,0.293,0.783,0.814,0.786,1.381v2.061c-0.012,0.551-0.31,1.057-0.786,1.332
	c-0.599,0.381-1.299,0.566-2.008,0.537h-16.685c-3.834,0-6.187,0.125-8.88-0.383c-2.31-0.432-4.192-1.328-5.305-3.201
	C510.896,431.208,510.876,427.337,510.876,423.906z"/>
<path fill="#c0aa6e" d="M88.615,431.093c-0.053-0.471-0.297-0.898-0.676-1.184c-0.057-0.039-0.116-0.076-0.177-0.109l2.204-8.146
	c0.21-0.8-0.151-1.642-0.877-2.041l-6.373-2.789c-0.08-0.039-0.359,0.632-0.839,2.013c-0.252,0.69-0.492,1.386-0.719,2.089
	l2.688,1.994l0.795-1.438l1.485,0.6l-1.222,4.514c-1.696-1.309-2.875-2.262-3.536-2.875c-0.481-0.471-0.932-0.971-1.347-1.5
	c-0.42-0.498-0.774-1.047-1.055-1.635l3.465-13.417c0.102-0.459,0.011-0.94-0.249-1.332c-1.345-1.961-3.109-3.598-5.166-4.792
	c-1.791-1.065-3.672-1.973-5.62-2.712c-0.055,0-0.107,0.107-0.158,0.321c-0.026,0.119-0.045,0.239-0.058,0.359
	c0.958,0.572,2.267,1.779,3.925,3.623c1.333,1.437,2.562,2.968,3.675,4.581l-3.436,13.202c-0.055,0.32-0.035,0.647,0.058,0.958
	c0.361,0.949,0.856,1.842,1.471,2.65c0.627,0.848,1.329,1.637,2.099,2.357c0.748,0.684,2.146,1.811,4.193,3.383
	c0.235,0.18,0.513,0.297,0.805,0.34l-1.438,5.338v0.059c-0.498,2.303-1.818,4.348-3.714,5.75c-1.916,1.43-4.791,2.096-8.625,1.992
	c0.118,0.117,0.219,0.252,0.297,0.398c0.093,0.197,0.166,0.305,0.221,0.32c1.595,0.619,3.288,0.943,4.998,0.959
	c1.662,0.055,3.312-0.314,4.792-1.074c2.628-1.42,4.54-3.877,5.271-6.775l1.668,11.611c-0.002,0.037-0.002,0.074,0,0.109h3.512
	c0.029-0.188,0.029-0.377,0-0.564L88.615,431.093z"/>
<path fill="#c0aa6e" d="M138.887,412.099l-15.569-18.209c-0.164-0.208-0.376-0.372-0.618-0.479c-0.234-0.118-0.494-0.179-0.757-0.177
	c-0.616,0-1.415-0.03-2.396-0.091c-5.159-0.217-10.314,0.529-15.2,2.2L103,395.865c-0.319,0.144-0.614,0.292-0.886,0.445
	c-0.271-0.123-0.552-0.222-0.839-0.297l-1.515-0.359c-1.671-0.343-3.373-0.52-5.079-0.527h-0.479
	c-1.706,0.008-3.407,0.184-5.079,0.527l-1.515,0.359c-0.287,0.075-0.567,0.174-0.838,0.297c-0.278-0.156-0.573-0.305-0.887-0.445
	l-1.365-0.527c-4.887-1.67-10.041-2.417-15.2-2.199c-0.958,0.051-1.757,0.082-2.396,0.091c-0.263-0.001-0.522,0.06-0.758,0.177
	c-0.241,0.107-0.454,0.272-0.618,0.479l-15.568,18.209c-0.242,0.296-0.382,0.662-0.397,1.044c-0.018,0.385,0.09,0.765,0.307,1.083
	l8.094,11.951c0.142,0.213,0.328,0.393,0.546,0.527l16.269,9.934c0.288,0.174,0.62,0.264,0.958,0.258
	c0.34,0.004,0.673-0.094,0.958-0.277c0.284-0.18,0.512-0.436,0.657-0.738l2.707-5.555l-2.626-2.77l-2.439,4.988l-14.255-8.711
	l-7.106-10.542l14.208-16.517l0.896-0.039c0.585-0.054,1.169-0.101,1.754-0.139c4.898-0.291,9.794,0.626,14.256,2.669
	c0.354,0.195,0.691,0.388,1.011,0.58c0.244,0.157,0.525,0.246,0.814,0.259c0.294,0.011,0.587-0.043,0.858-0.158l0.177-0.082
	c2.031-0.6,4.119-0.987,6.229-1.155l0.599-0.048l0.6,0.048c2.11,0.168,4.198,0.555,6.229,1.155l0.177,0.082
	c0.271,0.115,0.563,0.169,0.858,0.158c0.289-0.013,0.57-0.102,0.814-0.259c0.319-0.191,0.664-0.377,1.035-0.556
	c4.462-2.043,9.356-2.96,14.255-2.669c0.585,0.039,1.17,0.085,1.754,0.139l0.896,0.039l14.203,16.517l-7.106,10.542l-14.256,8.713
	l-2.438-4.988l-2.626,2.77l2.707,5.553c0.145,0.303,0.372,0.559,0.656,0.738c0.285,0.186,0.619,0.281,0.959,0.277
	c0.337,0.006,0.669-0.084,0.958-0.258l16.269-9.934c0.217-0.135,0.403-0.314,0.546-0.527l8.021-11.97
	c0.217-0.318,0.324-0.698,0.307-1.083C139.258,412.764,139.123,412.397,138.887,412.099z"/>
<path fill="#c0aa6e" d="M110.097,441.238c-1.895-1.402-3.215-3.445-3.713-5.75v-0.057l-1.438-5.338c0.293-0.045,0.57-0.162,0.806-0.34
	c2.048-1.572,3.445-2.701,4.192-3.385c0.77-0.721,1.473-1.51,2.099-2.357c0.615-0.809,1.11-1.699,1.472-2.649
	c0.092-0.311,0.111-0.639,0.058-0.958l-3.436-13.202c1.113-1.613,2.342-3.144,3.675-4.581c1.658-1.847,2.966-3.054,3.925-3.623
	c-0.013-0.121-0.032-0.241-0.058-0.359c-0.055-0.227-0.107-0.334-0.158-0.321c-1.947,0.745-3.826,1.657-5.616,2.727
	c-2.057,1.194-3.821,2.831-5.165,4.792c-0.261,0.392-0.351,0.873-0.25,1.332l3.465,13.417c-0.279,0.587-0.634,1.136-1.054,1.634
	c-0.422,0.523-0.879,1.021-1.366,1.484c-0.656,0.596-1.84,1.549-3.536,2.875l-1.222-4.514l1.485-0.599l0.795,1.438l2.688-1.994
	c-0.227-0.703-0.467-1.399-0.719-2.089c-0.479-1.38-0.759-2.051-0.839-2.013l-6.373,2.789c-0.726,0.399-1.087,1.24-0.877,2.042
	l2.204,8.146c-0.061,0.033-0.12,0.07-0.177,0.109c-0.379,0.285-0.623,0.713-0.676,1.184l-2.396,17.141
	c-0.029,0.188-0.029,0.379,0,0.566h3.512c0.002-0.037,0.002-0.074,0-0.111l1.701-11.602c0.752,2.908,2.695,5.365,5.353,6.768
	c1.48,0.758,3.13,1.127,4.792,1.072c1.71-0.016,3.403-0.34,4.998-0.959c0.054,0,0.128-0.105,0.221-0.32
	c0.078-0.146,0.179-0.281,0.297-0.398C114.897,443.335,112.008,442.669,110.097,441.238z"/>
</svg>
