<?xml version="1.0" encoding="utf-8"?>
<!-- Generator: Adobe Illustrator 23.0.1, SVG Export Plug-In . SVG Version: 6.00 Build 0)  -->
<svg version="1.1" id="Layer_1" xmlns="http://www.w3.org/2000/svg" xmlns:xlink="http://www.w3.org/1999/xlink" x="0px" y="0px"
	 width="567px" height="130px" viewBox="0 0 567 130" style="enable-background:new 0 0 567 130;" xml:space="preserve">
<style type="text/css">
	.st0{fill-rule:evenodd;clip-rule:evenodd;fill:#f7e24d;}
	.st1{fill-rule:evenodd;clip-rule:evenodd;fill:url(#SVGID_1_);}
	.text-color: {color: #f7e24d}
</style>
<path class="st0" d="M171,85.7c0-1,0.4-2,1.1-2.9c0.7-1,1.5-1.6,2.2-2.1c0.8-0.4,1.2-0.6,1.3-0.4c1.9,2.8,4.6,5.2,7.9,7
	c3.3,1.9,7.1,2.8,11.2,2.8c4.4,0,7.8-0.9,10.3-2.6c2.4-1.8,3.7-4.2,3.7-7.4c0-1.4-0.3-2.6-0.9-3.7c-0.6-1.1-1.3-2-2.1-2.6
	c-0.8-0.7-2-1.3-3.7-1.9c-1.7-0.6-3.1-1.1-4.1-1.3c-1-0.3-2.7-0.7-5-1.3c-3-0.7-5.4-1.3-7.4-2.1c-2-0.8-4.1-1.8-6.2-3.2
	c-2.1-1.4-3.7-3.1-4.8-5.4c-1.1-2.2-1.6-4.9-1.6-8c0-5.4,2.1-9.8,6.4-13.2c4.3-3.4,9.8-5.1,16.5-5.1c6.6,0,11.9,1.2,15.9,3.6
	c4,2.4,6,4.9,6,7.5c0,1.1-0.4,2.2-1.1,3.1c-0.8,1-1.5,1.6-2.3,2.1c-0.8,0.4-1.2,0.6-1.3,0.5c-1.8-2.5-4.2-4.6-7.2-6.2
	c-3-1.6-6.3-2.4-9.9-2.4c-4,0-7.2,0.9-9.6,2.7c-2.4,1.8-3.6,4.2-3.6,7.2c0,1.6,0.3,3,0.9,4c0.6,1.1,1.6,2,3.1,2.8
	c1.5,0.8,2.9,1.3,4.1,1.6c1.3,0.3,3.2,0.8,5.7,1.5c0.6,0.1,1,0.3,1.3,0.3c3.1,0.7,5.7,1.5,8,2.4c2.2,0.9,4.4,2,6.6,3.4
	c2.2,1.4,3.8,3.2,5,5.4c1.2,2.2,1.7,4.8,1.7,7.8c0,5.8-2.1,10.4-6.4,13.8c-4.3,3.4-10.1,5.1-17.6,5.1c-7.1,0-12.8-1.4-17.2-4.1
	C173.2,91.5,171,88.6,171,85.7L171,85.7z M238.2,71.1V37.6c0-3.1,1.4-4.6,4.3-4.6h1.4c2.9,0,4.4,1.5,4.4,4.6v33.3
	c0,12.3,5.3,18.4,15.8,18.4c10.6,0,15.8-6.2,15.8-18.5V37.6c0-3.1,1.4-4.6,4.3-4.6h1.6c2.8,0,4.2,1.5,4.2,4.6v33.3
	c0,8.8-2.2,15.6-6.7,20.3c-4.5,4.7-10.9,7-19.4,7c-8.5,0-14.9-2.3-19.3-6.9C240.4,86.7,238.2,79.9,238.2,71.1L238.2,71.1z
	 M312.8,92.2V39.1c0-1.7,0.5-3.1,1.5-4.1c1-1.1,2.3-1.6,3.9-1.6h18c7.8,0,13.7,1.6,17.7,4.8c4,3.2,6,7.9,6,14.2
	c0,5.5-1.6,9.9-4.8,13.3c-3.2,3.3-7.9,5.2-14.1,5.7l18.5,22c0.2,0.2,0.1,0.6-0.3,1.3c-0.4,0.7-1.1,1.3-2.1,1.9
	c-1,0.6-2.2,0.9-3.5,0.9c-2.4,0-4.6-1.3-6.6-3.9l-17.4-21.2h-7v20.5c0,3-1.4,4.6-4.3,4.6h-1.4C314.1,97.4,312.8,95.7,312.8,92.2
	L312.8,92.2z M322.5,64.2H336c4.6,0,8-1,10.3-3c2.3-2,3.4-4.8,3.4-8.4c0-7.5-4.7-11.3-14.1-11.3h-13.2V64.2L322.5,64.2z M380.5,92.1
	v-53c0-1.7,0.5-3.1,1.5-4.1c1-1.1,2.3-1.6,3.9-1.6h34.3c3.1,0,4.7,1.4,4.7,4.1v0.6c0,2.8-1.6,4.2-4.7,4.2h-29.8v20.3h22.1
	c3.1,0,4.7,1.3,4.7,4V67c0,2.8-1.6,4.1-4.7,4.1h-21.9v21.7c0,3.1-1.5,4.6-4.4,4.6h-1.6C381.9,97.4,380.5,95.7,380.5,92.1L380.5,92.1
	z M443.8,91.4V39.1c0-1.7,0.5-3.1,1.5-4.1c1-1.1,2.3-1.6,3.9-1.6h36.9c3.1,0,4.7,1.4,4.7,4.2v0.6c0,2.8-1.6,4.2-4.7,4.2h-32.2v17.9
	h24.9c3.1,0,4.7,1.3,4.8,4v0.3c0,2.8-1.6,4.2-4.8,4.2h-24.9v19.3h32.8c3.1,0,4.6,1.3,4.6,4.1v0.5c0,3-1.5,4.4-4.6,4.4h-37.5
	c-1.6,0-3-0.5-3.9-1.5C444.3,94.5,443.8,93.1,443.8,91.4L443.8,91.4z M511.4,92.2V39.1c0-1.7,0.5-3.1,1.5-4.1c1-1.1,2.3-1.6,3.9-1.6
	h18c7.8,0,13.7,1.6,17.7,4.8c4,3.2,6,7.9,6,14.2c0,5.5-1.6,9.9-4.8,13.3c-3.2,3.3-7.9,5.2-14.1,5.7l18.5,22c0.2,0.2,0.1,0.6-0.3,1.3
	c-0.4,0.7-1.1,1.3-2.1,1.9c-1,0.6-2.2,0.9-3.5,0.9c-2.4,0-4.6-1.3-6.6-3.9l-17.4-21.2h-7v20.5c0,3-1.4,4.6-4.3,4.6h-1.4
	C512.8,97.4,511.4,95.7,511.4,92.2L511.4,92.2z M521.1,64.2h13.5c4.6,0,8-1,10.3-3c2.3-2,3.4-4.8,3.4-8.4c0-7.5-4.7-11.3-14.1-11.3
	h-13.2V64.2z"/>
<linearGradient id="SVGID_1_" gradientUnits="userSpaceOnUse" x1="69.0934" y1="118.0606" x2="69.0941" y2="12.3261">
	<stop  offset="0" style="stop-color:#E84D8C"/>
	<stop  offset="1" style="stop-color:#F8DB8A"/>
</linearGradient>
<path class="st1" d="M79.4,92.2h10.5c1.4,0,2.5-1.1,2.5-2.5V40.8c0-1.4-1.1-2.5-2.5-2.5H79.4c-1.4,0-2.5,1.1-2.5,2.5v48.8
	C76.9,91,78,92.2,79.4,92.2L79.4,92.2z M22.4,33.6V62v6v3.1h6.1l-6,8.7l-6,8.7l-6-8.7l-6-8.7h6.2V68v-6V33.6
	c0-14.8,12.1-26.9,26.9-26.9h63.1c14.8,0,26.9,12.1,26.9,26.9h-11.8c0-8.3-6.8-15.1-15.1-15.1H37.5C29.2,18.5,22.4,25.3,22.4,33.6
	L22.4,33.6z M121.6,41.9l6,8.7l6,8.7h-6.1v3.1v2.8v31.6c0,14.8-12.1,26.9-26.9,26.9H37.5c-14.8,0-26.9-12.1-26.9-26.9h11.8
	c0,8.3,6.8,15.1,15.1,15.1h63.1c8.3,0,15.1-6.8,15.1-15.1V65.2v-2.8v-3.1h-6.1l6-8.7L121.6,41.9L121.6,41.9z M48.3,92.2h10.5
	c1.4,0,2.5-1.1,2.5-2.5V58.7c0-1.4-1.1-2.5-2.5-2.5H48.3c-1.4,0-2.5,1.1-2.5,2.5v30.9C45.8,91,46.9,92.2,48.3,92.2z"/>
</svg>
